<svg width="60" height="60" viewBox="0 0 60 60" fill="none" xmlns="http://www.w3.org/2000/svg">
<g id="Group">
<path id="Vector" d="M58.1943 46.6175C60.6509 35.5058 49.8691 31.2807 44.302 35.3353C43.7958 35.5912 43.3068 35.8869 42.8348 36.1882C41.3222 37.1663 39.8778 38.2525 38.2287 38.9974C36.5227 39.7594 34.6745 40.2144 32.798 40.1461C27.7141 39.9414 23.7506 37.2118 21.1177 32.9753C20.4353 31.8721 19.8325 30.7348 19.2866 29.5633C18.7577 28.4203 18.2004 27.2489 17.2678 26.3675C16.756 25.8898 16.1362 25.5145 15.4424 25.3894C14.3165 25.196 13.1621 25.7192 12.3489 26.5153C10.6884 28.1417 10.0913 30.422 9.96622 32.7308C9.4658 19.4298 19.8325 15.4947 24.4102 19.3161C24.6718 19.5947 24.9334 19.8791 25.1722 20.1861C26.1219 21.3633 27.0033 22.6257 27.6743 23.9791C28.351 25.3496 28.9026 26.7883 29.7499 28.0678C30.1764 28.716 30.6996 29.3359 31.3877 29.6941C32.3828 30.2059 33.6168 30.1093 34.6575 29.6771C35.5275 29.3188 36.2895 28.7672 37.0231 28.1872C37.7169 27.6526 38.5187 27.2205 39.275 26.7826C40.9071 25.85 42.6585 25.0766 44.5294 24.7752C46.8268 24.3999 49.1697 24.6672 51.3591 25.4121C56.8807 27.2944 60.1903 32.5318 59.9913 39.0827C59.9174 41.4825 59.326 44.0869 58.1943 46.6175Z" fill="white"/>
<path id="Vector_2" d="M24.6652 49.5064V59.4863C12.5073 59.4863 1.27622 49.2846 0.138904 37.2062C-0.554862 29.916 1.37859 23.2342 5.30235 19.3446C8.28213 16.3819 12.2286 15.0455 16.6983 15.4948C19.7122 15.8018 22.3679 17.1723 24.4093 19.3218C19.8316 15.5004 9.47062 19.4356 9.96536 32.7365C9.9028 33.9421 9.96536 35.1477 10.0734 36.2736C10.6591 42.5232 17.0224 49.512 24.6652 49.512V49.5064Z" fill="white"/>
<path id="Vector_3" d="M58.194 46.6173C55.7545 52.0765 50.8185 57.2115 43.1245 59.3042L40.503 49.6824C41.5152 49.5061 44.3016 48.4143 45.8143 46.9244C47.3269 45.4345 48.6576 43.8764 49.3798 41.9373C49.6527 41.2094 49.8518 40.4531 49.9655 39.6854C50.102 38.7641 50.1133 37.8088 49.8347 36.9274C49.4366 35.6422 48.4244 34.6812 47.0483 34.6414C46.0929 34.6129 45.1717 34.9029 44.3016 35.3408C49.8688 31.2863 60.6506 35.5114 58.194 46.623V46.6173Z" fill="white"/>
<path id="Vector_4" d="M51.7497 21.1243C54.8652 21.1243 57.3908 18.5987 57.3908 15.4832C57.3908 12.3677 54.8652 9.84204 51.7497 9.84204C48.6342 9.84204 46.1086 12.3677 46.1086 15.4832C46.1086 18.5987 48.6342 21.1243 51.7497 21.1243Z" fill="white"/>
<path id="Vector_5" d="M21.2363 12.2249C24.3518 12.2249 26.8774 9.69925 26.8774 6.58374C26.8774 3.46824 24.3518 0.942627 21.2363 0.942627C18.1208 0.942627 15.5952 3.46824 15.5952 6.58374C15.5952 9.69925 18.1208 12.2249 21.2363 12.2249Z" fill="white"/>
<path id="Vector_6" d="M24.4378 19.3385C24.4378 19.3385 24.4154 19.3217 24.4099 19.3162" stroke="white" stroke-miterlimit="10"/>
</g>
</svg>
