<svg width="24" height="25" viewBox="0 0 24 25" fill="none" xmlns="http://www.w3.org/2000/svg">
<g id="menu-01">
<path id="Icon (Stroke)" fill-rule="evenodd" clip-rule="evenodd" d="M2.25 6.69556C2.25 6.28134 2.58579 5.94556 3 5.94556H21C21.4142 5.94556 21.75 6.28134 21.75 6.69556C21.75 7.10977 21.4142 7.44556 21 7.44556H3C2.58579 7.44556 2.25 7.10977 2.25 6.69556ZM2.25 12.6956C2.25 12.2813 2.58579 11.9456 3 11.9456H21C21.4142 11.9456 21.75 12.2813 21.75 12.6956C21.75 13.1098 21.4142 13.4456 21 13.4456H3C2.58579 13.4456 2.25 13.1098 2.25 12.6956ZM2.25 18.6956C2.25 18.2813 2.58579 17.9456 3 17.9456H21C21.4142 17.9456 21.75 18.2813 21.75 18.6956C21.75 19.1098 21.4142 19.4456 21 19.4456H3C2.58579 19.4456 2.25 19.1098 2.25 18.6956Z" fill="black"/>
</g>
</svg>
