<svg width="200" height="48" viewBox="0 0 200 48" fill="none" xmlns="http://www.w3.org/2000/svg">
<g id="Group">
<g id="Group_2">
<path id="Vector" d="M46.9068 36.8156C48.887 27.8592 40.1964 24.4536 35.7091 27.7217C35.3011 27.928 34.9069 28.1663 34.5265 28.4093C33.3072 29.1976 32.143 30.0731 30.8137 30.6736C29.4387 31.2878 27.949 31.6545 26.4364 31.5994C22.3386 31.4344 19.1438 29.2343 17.0216 25.8195C16.4716 24.9303 15.9857 24.0136 15.5457 23.0693C15.1194 22.148 14.6702 21.2038 13.9185 20.4933C13.506 20.1083 13.0064 19.8058 12.4472 19.705C11.5396 19.5491 10.6091 19.9708 9.95368 20.6125C8.61526 21.9234 8.13398 23.7615 8.03314 25.6224C7.62978 14.9013 15.9857 11.7294 19.6756 14.8096C19.8864 15.0342 20.0972 15.2634 20.2898 15.5109C21.0552 16.4597 21.7657 17.4773 22.3065 18.5682C22.852 19.6729 23.2966 20.8325 23.9796 21.8638C24.3233 22.3864 24.745 22.886 25.2997 23.1747C26.1018 23.5873 27.0964 23.5094 27.9352 23.161C28.6365 22.8722 29.2507 22.4276 29.842 21.9601C30.4012 21.5292 31.0475 21.1809 31.6571 20.8279C32.9726 20.0762 34.3844 19.4529 35.8924 19.2099C37.7442 18.9074 39.6326 19.1228 41.3973 19.7233C45.848 21.2405 48.5157 25.462 48.3553 30.7423C48.2957 32.6766 47.819 34.7759 46.9068 36.8156Z" fill="url(#paint0_linear_1_51)"/>
<path id="Vector_2" d="M19.8811 39.1444V47.1886C10.0813 47.1886 1.02869 38.9656 0.111962 29.23C-0.44724 23.3538 1.1112 17.968 4.2739 14.8328C6.67571 12.4448 9.85675 11.3676 13.4595 11.7297C15.8888 11.9772 18.0293 13.0819 19.6749 14.8145C15.9851 11.7343 7.63368 14.9062 8.03246 25.6273C7.98204 26.599 8.03246 27.5707 8.11955 28.4783C8.59166 33.5157 13.7207 39.1489 19.8811 39.1489V39.1444Z" fill="url(#paint1_linear_1_51)"/>
<path id="Vector_3" d="M46.9067 36.8157C44.9404 41.2159 40.9618 45.355 34.7601 47.0417L32.6471 39.2862C33.463 39.1442 35.709 38.2641 36.9282 37.0632C38.1474 35.8623 39.22 34.6064 39.8021 33.0433C40.0221 32.4566 40.1826 31.847 40.2742 31.2282C40.3843 30.4857 40.3934 29.7156 40.1688 29.0052C39.848 27.9693 39.0321 27.1946 37.9228 27.1626C37.1528 27.1396 36.4102 27.3734 35.709 27.7263C40.1963 24.4582 48.8869 27.8639 46.9067 36.8203V36.8157Z" fill="url(#paint2_linear_1_51)"/>
<path id="Vector_4" d="M41.7123 16.2672C44.2235 16.2672 46.2592 14.2315 46.2592 11.7203C46.2592 9.20908 44.2235 7.17334 41.7123 7.17334C39.201 7.17334 37.1653 9.20908 37.1653 11.7203C37.1653 14.2315 39.201 16.2672 41.7123 16.2672Z" fill="url(#paint3_linear_1_51)"/>
<path id="Vector_5" d="M17.1173 9.09392C19.6285 9.09392 21.6642 7.05817 21.6642 4.54696C21.6642 2.03574 19.6285 0 17.1173 0C14.606 0 12.5703 2.03574 12.5703 4.54696C12.5703 7.05817 14.606 9.09392 17.1173 9.09392Z" fill="url(#paint4_linear_1_51)"/>
<path id="Vector_6" d="M19.6978 14.8278C19.6978 14.8278 19.6798 14.8143 19.6753 14.8098" stroke="url(#paint5_linear_1_51)" stroke-miterlimit="10"/>
</g>
<g id="Group_3">
<path id="Vector_7" d="M59.4702 41.1336V37.7096H62.092V24.2934H59.4702V20.8694H69.6321L74.0782 32.7364L78.5518 20.8694H88.9108V24.2934H86.289V37.7096H88.9108V41.1336H78.7168V37.7096H81.1645V24.2934H80.6832L74.4082 41.129H72.2219L65.8735 24.2934H65.3922V37.7096H68.0416V41.1336H59.4794H59.4702Z" fill="black"/>
<path id="Vector_8" d="M101.878 36.88L105.375 38.003C103.908 40.304 101.617 41.4545 98.4996 41.4545C96.0153 41.4545 94.0719 40.799 92.683 39.4881C91.2896 38.1772 90.5929 36.4537 90.5929 34.3178C90.5929 32.1818 91.3125 30.3254 92.7472 28.8724C94.1819 27.4148 96.0153 26.686 98.2384 26.686C99.8518 26.686 101.245 27.094 102.419 27.9099C103.592 28.7257 104.408 29.7387 104.866 30.9534C105.325 32.168 105.549 33.5202 105.549 35.0191H95.0482C95.1169 36.3025 95.5203 37.21 96.2628 37.7417C97.0054 38.2734 97.7892 38.5439 98.6142 38.5439C99.6914 38.5439 100.778 37.9893 101.878 36.8846V36.88ZM101.021 32.5118C100.915 31.7234 100.608 31.0542 100.099 30.5042C99.5905 29.9496 98.8892 29.6746 98.0092 29.6746C96.3591 29.6746 95.3965 30.6188 95.1261 32.5164H101.025L101.021 32.5118Z" fill="black"/>
<path id="Vector_9" d="M107.314 30.284V27.0342H113.969V28.3451C115.33 27.3276 116.705 26.8142 118.104 26.8142C120.95 26.8142 122.371 28.6293 122.371 32.2596V37.8837H124.498V41.1334H117.87V32.5987C117.87 31.8333 117.764 31.3062 117.558 31.0266C117.352 30.747 117.008 30.6049 116.531 30.6049C115.697 30.6049 114.84 30.912 113.969 31.5216V37.8882H116.137V41.138H107.309V37.8882H109.463V30.284H107.309H107.314Z" fill="black"/>
<path id="Vector_10" d="M124.964 30.2842V27.0345H126.757V24.8206L131.258 21.5891V27.0345H133.852V30.2842H131.258V36.3988C131.258 36.9534 131.327 37.3247 131.469 37.5172C131.611 37.7051 131.932 37.8014 132.436 37.8014C132.853 37.8014 133.325 37.7051 133.848 37.508V40.6249C132.692 41.1016 131.56 41.3399 130.456 41.3399C127.99 41.3399 126.757 40.1161 126.757 37.6639V30.2842H124.964Z" fill="black"/>
<path id="Vector_11" d="M142.833 41.4545C140.757 41.4545 139.001 40.7944 137.567 39.4789C136.132 38.1634 135.417 36.3621 135.417 34.0703C135.417 31.7784 136.132 29.9771 137.567 28.6616C138.997 27.3461 140.752 26.686 142.833 26.686C144.914 26.686 146.679 27.3461 148.104 28.6616C149.53 29.9771 150.245 31.783 150.245 34.0703C150.245 36.3575 149.539 38.1268 148.127 39.4606C146.716 40.7898 144.951 41.4545 142.833 41.4545ZM142.82 37.9572C143.654 37.9572 144.332 37.6363 144.85 36.9946C145.368 36.3529 145.629 35.3491 145.629 33.9786C145.629 32.7731 145.377 31.8334 144.873 31.1597C144.369 30.4859 143.681 30.1467 142.82 30.1467C140.963 30.1467 140.037 31.4851 140.037 34.1665C140.037 35.262 140.266 36.1696 140.729 36.8846C141.192 37.5996 141.889 37.9572 142.82 37.9572Z" fill="black"/>
<path id="Vector_12" d="M161.666 37.8837V41.1335H151.747V37.8837H154.356V30.2794H151.908V27.0296H158.476V30.614C158.728 29.5873 159.306 28.6935 160.204 27.9418C161.103 27.1901 162.161 26.8142 163.385 26.8142C163.587 26.8142 163.83 26.8188 164.114 26.828V31.0816C162.977 31.0816 162.051 31.2099 161.332 31.462C160.612 31.7141 160.021 32.2687 159.553 33.1213C159.086 33.9738 158.852 34.9868 158.852 36.1511V37.8837H161.662H161.666Z" fill="black"/>
<path id="Vector_13" d="M164.865 41.1336V37.7096H167.762V24.2934H164.865V20.8694H175.994V24.2934H173.038V37.7096H179.024V31.4484H182.97V41.1336H164.865Z" fill="black"/>
<path id="Vector_14" d="M192.588 41.4545C190.512 41.4545 188.756 40.7944 187.321 39.4789C185.887 38.1634 185.172 36.3621 185.172 34.0703C185.172 31.7784 185.887 29.9771 187.321 28.6616C188.752 27.3461 190.507 26.686 192.588 26.686C194.669 26.686 196.434 27.3461 197.859 28.6616C199.285 29.9771 200 31.783 200 34.0703C200 36.3575 199.294 38.1268 197.882 39.4606C196.47 40.7898 194.706 41.4545 192.588 41.4545ZM192.574 37.9572C193.409 37.9572 194.087 37.6363 194.605 36.9946C195.123 36.3529 195.384 35.3491 195.384 33.9786C195.384 32.7731 195.132 31.8334 194.628 31.1597C194.124 30.4859 193.436 30.1467 192.574 30.1467C190.718 30.1467 189.792 31.4851 189.792 34.1665C189.792 35.262 190.021 36.1696 190.484 36.8846C190.947 37.5996 191.644 37.9572 192.574 37.9572Z" fill="black"/>
</g>
</g>
<defs>
<linearGradient id="paint0_linear_1_51" x1="15.179" y1="18.8111" x2="45.3209" y2="30.9898" gradientUnits="userSpaceOnUse">
<stop offset="0.15" stop-color="#0896FF"/>
<stop offset="0.26" stop-color="#088BFD"/>
<stop offset="0.43" stop-color="#0870F9"/>
<stop offset="0.66" stop-color="#0844F2"/>
<stop offset="0.89" stop-color="#0813EB"/>
</linearGradient>
<linearGradient id="paint1_linear_1_51" x1="2.7888" y1="39.0068" x2="29.5205" y2="15.9329" gradientUnits="userSpaceOnUse">
<stop offset="0.16" stop-color="#0896FF"/>
<stop offset="0.24" stop-color="#088BFD"/>
<stop offset="0.37" stop-color="#0870F9"/>
<stop offset="0.54" stop-color="#0844F2"/>
<stop offset="0.71" stop-color="#0813EB"/>
</linearGradient>
<linearGradient id="paint2_linear_1_51" x1="43.8265" y1="23.0831" x2="36.3461" y2="50.3694" gradientUnits="userSpaceOnUse">
<stop offset="0.15" stop-color="#0896FF"/>
<stop offset="0.26" stop-color="#088BFD"/>
<stop offset="0.43" stop-color="#0870F9"/>
<stop offset="0.66" stop-color="#0844F2"/>
<stop offset="0.89" stop-color="#0813EB"/>
</linearGradient>
<linearGradient id="paint3_linear_1_51" x1="37.8666" y1="7.15959" x2="47.3501" y2="18.4032" gradientUnits="userSpaceOnUse">
<stop offset="0.15" stop-color="#0896FF"/>
<stop offset="0.26" stop-color="#088BFD"/>
<stop offset="0.43" stop-color="#0870F9"/>
<stop offset="0.66" stop-color="#0844F2"/>
<stop offset="0.89" stop-color="#0813EB"/>
</linearGradient>
<linearGradient id="paint4_linear_1_51" x1="12.5886" y1="0.591288" x2="24.6161" y2="11.1015" gradientUnits="userSpaceOnUse">
<stop offset="0.15" stop-color="#0896FF"/>
<stop offset="0.26" stop-color="#088BFD"/>
<stop offset="0.43" stop-color="#0870F9"/>
<stop offset="0.66" stop-color="#0844F2"/>
<stop offset="0.89" stop-color="#0813EB"/>
</linearGradient>
<linearGradient id="paint5_linear_1_51" x1="19.5178" y1="14.8188" x2="19.8552" y2="14.8188" gradientUnits="userSpaceOnUse">
<stop stop-color="#FFF33B"/>
<stop offset="0.04" stop-color="#FEE62D"/>
<stop offset="0.12" stop-color="#FDD51B"/>
<stop offset="0.2" stop-color="#FDCA0F"/>
<stop offset="0.28" stop-color="#FDC70C"/>
<stop offset="0.67" stop-color="#F3903F"/>
<stop offset="0.89" stop-color="#ED683C"/>
<stop offset="1" stop-color="#E93E3A"/>
</linearGradient>
</defs>
</svg>
