<svg width="18" height="19" viewBox="0 0 18 19" fill="none" xmlns="http://www.w3.org/2000/svg">
<g id="star-08">
<path id="Union" fill-rule="evenodd" clip-rule="evenodd" d="M9.40346 1.87789C9.14824 1.7562 8.85173 1.7562 8.59651 1.87789C8.38327 1.97956 8.26105 2.15838 8.19137 2.2722C8.11989 2.38896 8.04526 2.54019 7.96733 2.69812L6.31756 6.04038L6.30884 6.05803L6.28935 6.06089L2.6209 6.59709L2.59908 6.60027C2.42488 6.62571 2.25806 6.65008 2.12498 6.68208C1.99524 6.71328 1.7875 6.7744 1.62507 6.94586C1.43064 7.15109 1.3392 7.43309 1.37621 7.71337C1.40713 7.94752 1.53947 8.11891 1.62622 8.2203C1.7152 8.3243 1.83598 8.44192 1.96211 8.56473L1.97792 8.58013L4.63144 11.1647L4.64556 11.1784L4.64223 11.1979L4.01239 14.8701C3.98259 15.0438 3.95406 15.21 3.94325 15.3465C3.93271 15.4796 3.92646 15.6961 4.03924 15.9037C4.17421 16.1522 4.41413 16.3265 4.69218 16.3781C4.92449 16.4211 5.12851 16.3482 5.25179 16.2971C5.37826 16.2446 5.52754 16.1661 5.68344 16.0841L8.98253 14.3491L8.99999 14.3399L9.01744 14.3491L12.3165 16.0841C12.4724 16.1661 12.6217 16.2446 12.7482 16.2971C12.8715 16.3482 13.0755 16.4211 13.3078 16.3781C13.5858 16.3265 13.8258 16.1522 13.9607 15.9037C14.0735 15.6961 14.0673 15.4796 14.0567 15.3465C14.0459 15.21 14.0174 15.0438 13.9876 14.8701L13.3577 11.1979L13.3544 11.1784L13.3685 11.1647L16.0379 8.56473C16.164 8.44192 16.2848 8.3243 16.3738 8.2203C16.4605 8.11891 16.5928 7.94752 16.6238 7.71337C16.6608 7.43309 16.5693 7.15109 16.3749 6.94586C16.2125 6.7744 16.0047 6.71328 15.875 6.68208C15.7419 6.65008 15.5751 6.62572 15.4009 6.60028L11.7106 6.06089L11.6911 6.05803L11.6824 6.04038L10.0327 2.69813C9.95472 2.5402 9.88009 2.38896 9.8086 2.2722C9.73892 2.15838 9.6167 1.97956 9.40346 1.87789ZM2.71253 7.72069L2.70856 7.72127L2.72667 7.73893L2.71253 7.72069ZM15.2734 7.73888L15.2914 7.72127L15.2875 7.72069L15.2734 7.73888Z" fill="white"/>
</g>
</svg>
