<svg width="250" height="60" viewBox="0 0 250 60" fill="none" xmlns="http://www.w3.org/2000/svg">
<g id="Group">
<g id="Group_2">
<path id="Vector" d="M58.6333 46.2083C61.1084 35.0128 50.2452 30.7558 44.636 34.8409C44.1261 35.0988 43.6334 35.3967 43.1578 35.7004C41.6338 36.6858 40.1785 37.7802 38.5169 38.5307C36.798 39.2985 34.936 39.7569 33.0452 39.6881C27.923 39.4818 23.9295 36.7317 21.2767 32.4632C20.5892 31.3516 19.9819 30.2057 19.4318 29.0255C18.899 27.8738 18.3375 26.6935 17.3979 25.8055C16.8822 25.3242 16.2577 24.946 15.5587 24.82C14.4242 24.6252 13.2611 25.1523 12.4418 25.9544C10.7688 27.5931 10.1672 29.8906 10.0411 32.2168C9.53692 18.8154 19.9819 14.8506 24.5941 18.7008C24.8577 18.9816 25.1213 19.2681 25.3619 19.5775C26.3187 20.7635 27.2068 22.0354 27.8829 23.3991C28.5647 24.7799 29.1205 26.2294 29.9742 27.5186C30.4039 28.1717 30.931 28.7963 31.6243 29.1572C32.6269 29.6729 33.8703 29.5755 34.9188 29.14C35.7954 28.7791 36.5631 28.2233 37.3022 27.6389C38.0012 27.1003 38.8091 26.6649 39.5711 26.2237C41.2155 25.2841 42.9802 24.5049 44.8652 24.2012C47.1799 23.823 49.5405 24.0923 51.7464 24.8429C57.3098 26.7394 60.6444 32.0163 60.4438 38.6167C60.3693 41.0346 59.7735 43.6587 58.6333 46.2083Z" fill="white"/>
<path id="Vector_2" d="M24.8514 49.1187V59.174C12.6017 59.174 1.28586 48.8953 0.139952 36.7257C-0.559051 29.3805 1.389 22.6483 5.34238 18.7293C8.34465 15.7442 12.3209 14.3977 16.8244 14.8504C19.861 15.1598 22.5367 16.5406 24.5936 18.7064C19.9813 14.8561 9.54211 18.8209 10.0406 32.2223C9.97756 33.437 10.0406 34.6516 10.1494 35.7861C10.7396 42.0828 17.1509 49.1244 24.8514 49.1244V49.1187Z" fill="white"/>
<path id="Vector_3" d="M58.6332 46.208C56.1752 51.7084 51.202 56.8821 43.4499 58.9906L40.8086 49.2962C41.8285 49.1186 44.6359 48.0185 46.16 46.5174C47.684 45.0163 49.0247 43.4464 49.7524 41.4926C50.0274 40.7592 50.228 39.9972 50.3425 39.2237C50.4801 38.2955 50.4915 37.333 50.2107 36.4449C49.8097 35.15 48.7898 34.1817 47.4033 34.1416C46.4407 34.113 45.5125 34.4052 44.6359 34.8463C50.2451 30.7612 61.1083 35.0182 58.6332 46.2137V46.208Z" fill="white"/>
<path id="Vector_4" d="M52.1401 20.5224C55.2792 20.5224 57.8238 17.9777 57.8238 14.8387C57.8238 11.6997 55.2792 9.15503 52.1401 9.15503C49.0011 9.15503 46.4564 11.6997 46.4564 14.8387C46.4564 17.9777 49.0011 20.5224 52.1401 20.5224Z" fill="white"/>
<path id="Vector_5" d="M21.3961 11.5559C24.5352 11.5559 27.0799 9.0112 27.0799 5.87218C27.0799 2.73315 24.5352 0.188477 21.3961 0.188477C18.2571 0.188477 15.7125 2.73315 15.7125 5.87218C15.7125 9.0112 18.2571 11.5559 21.3961 11.5559Z" fill="white"/>
<path id="Vector_6" d="M24.6227 18.7232C24.6227 18.7232 24.6002 18.7063 24.5946 18.7007" stroke="white" stroke-miterlimit="10"/>
</g>
<g id="Group_3">
<path id="Vector_7" d="M74.3383 51.6054V47.3255H77.6155V30.5551H74.3383V26.2751H87.0406L92.5983 41.1089L98.1903 26.2751H111.139V30.5551H107.862V47.3255H111.139V51.6054H98.3966V47.3255H101.456V30.5551H100.855L93.0108 51.5997H90.2778L82.3424 30.5551H81.7408V47.3255H85.0525V51.6054H74.3497H74.3383Z" fill="white"/>
<path id="Vector_8" d="M127.347 46.2883L131.719 47.692C129.885 50.5682 127.02 52.0063 123.124 52.0063C120.019 52.0063 117.59 51.187 115.854 49.5484C114.112 47.9097 113.241 45.7554 113.241 43.0855C113.241 40.4155 114.141 38.095 115.934 36.2788C117.727 34.4568 120.019 33.5458 122.798 33.5458C124.815 33.5458 126.556 34.0557 128.023 35.0756C129.49 36.0954 130.51 37.3616 131.083 38.88C131.656 40.3983 131.936 42.0885 131.936 43.9621H118.81C118.896 45.5663 119.4 46.7008 120.328 47.3654C121.257 48.03 122.236 48.3681 123.268 48.3681C124.614 48.3681 125.972 47.6748 127.347 46.294V46.2883ZM126.276 40.828C126.144 39.8425 125.76 39.006 125.124 38.3185C124.488 37.6252 123.611 37.2814 122.511 37.2814C120.449 37.2814 119.246 38.4617 118.907 40.8337H126.281L126.276 40.828Z" fill="white"/>
<path id="Vector_9" d="M134.142 38.0439V33.9817H142.461V35.6203C144.163 34.3484 145.882 33.7067 147.629 33.7067C151.187 33.7067 152.964 35.9756 152.964 40.5134V47.5435H155.622V51.6057H147.337V40.9373C147.337 39.9805 147.205 39.3216 146.948 38.9721C146.69 38.6226 146.26 38.445 145.664 38.445C144.621 38.445 143.55 38.8289 142.461 39.5909V47.5492H145.171V51.6115H134.136V47.5492H136.829V38.0439H134.136H134.142Z" fill="white"/>
<path id="Vector_10" d="M156.206 38.0436V33.9814H158.446V31.214L164.072 27.1747V33.9814H167.315V38.0436H164.072V45.6868C164.072 46.3801 164.158 46.8442 164.336 47.0848C164.513 47.3197 164.915 47.44 165.545 47.44C166.066 47.44 166.656 47.3197 167.309 47.0733V50.9694C165.866 51.5653 164.45 51.8632 163.07 51.8632C159.987 51.8632 158.446 50.3335 158.446 47.2682V38.0436H156.206Z" fill="white"/>
<path id="Vector_11" d="M178.541 52.0063C175.946 52.0063 173.751 51.1813 171.958 49.5369C170.165 47.8925 169.271 45.6408 169.271 42.7761C169.271 39.9113 170.165 37.6596 171.958 36.0152C173.746 34.3708 175.94 33.5458 178.541 33.5458C181.143 33.5458 183.348 34.3708 185.13 36.0152C186.912 37.6596 187.806 39.917 187.806 42.7761C187.806 45.6351 186.924 47.8467 185.159 49.514C183.394 51.1756 181.188 52.0063 178.541 52.0063ZM178.524 47.6347C179.567 47.6347 180.415 47.2336 181.062 46.4315C181.71 45.6294 182.036 44.3746 182.036 42.6615C182.036 41.1546 181.721 39.98 181.091 39.1378C180.461 38.2956 179.601 37.8716 178.524 37.8716C176.204 37.8716 175.046 39.5446 175.046 42.8964C175.046 44.2657 175.333 45.4002 175.912 46.294C176.49 47.1878 177.361 47.6347 178.524 47.6347Z" fill="white"/>
<path id="Vector_12" d="M202.083 47.5435V51.6057H189.684V47.5435H192.944V38.0382H189.885V33.976H198.095V38.4565C198.41 37.173 199.132 36.0558 200.255 35.1161C201.378 34.1765 202.702 33.7067 204.231 33.7067C204.484 33.7067 204.787 33.7124 205.142 33.7239V39.0409C203.722 39.0409 202.564 39.2013 201.665 39.5164C200.765 39.8315 200.026 40.5248 199.442 41.5905C198.857 42.6562 198.565 43.9224 198.565 45.3777V47.5435H202.077H202.083Z" fill="white"/>
<path id="Vector_13" d="M206.081 51.6054V47.3255H209.702V30.5551H206.081V26.2751H219.992V30.5551H216.297V47.3255H223.779V39.4989H228.713V51.6054H206.081Z" fill="white"/>
<path id="Vector_14" d="M240.735 52.0063C238.14 52.0063 235.945 51.1813 234.152 49.5369C232.359 47.8925 231.465 45.6408 231.465 42.7761C231.465 39.9113 232.359 37.6596 234.152 36.0152C235.94 34.3708 238.134 33.5458 240.735 33.5458C243.336 33.5458 245.542 34.3708 247.324 36.0152C249.106 37.6596 250 39.917 250 42.7761C250 45.6351 249.117 47.8467 247.353 49.514C245.588 51.1756 243.382 52.0063 240.735 52.0063ZM240.718 47.6347C241.761 47.6347 242.609 47.2336 243.256 46.4315C243.904 45.6294 244.23 44.3746 244.23 42.6615C244.23 41.1546 243.915 39.98 243.285 39.1378C242.655 38.2956 241.795 37.8716 240.718 37.8716C238.397 37.8716 237.24 39.5446 237.24 42.8964C237.24 44.2657 237.527 45.4002 238.105 46.294C238.684 47.1878 239.555 47.6347 240.718 47.6347Z" fill="white"/>
</g>
</g>
</svg>
